<svg height="200px" width="200px" version="1.1" id="Layer_1" xmlns="http://www.w3.org/2000/svg" xmlns:xlink="http://www.w3.org/1999/xlink" viewBox="0 0 512 512" xml:space="preserve" fill="#000000" stroke="#000000" stroke-width="0.00512"><g id="SVGRepo_bgCarrier" stroke-width="0"></g><g id="SVGRepo_tracerCarrier" stroke-linecap="round" stroke-linejoin="round" stroke="#CCCCCC" stroke-width="1.024"></g><g id="SVGRepo_iconCarrier"> <path style="fill:#957755;" d="M470.865,99.639h-201.12v412.065L442.937,512c37.895,0,68.727-30.83,68.727-68.727V140.437 C511.663,117.941,493.361,99.639,470.865,99.639z"></path> <path style="fill:#7F6749;" d="M470.865,99.639h-33.539c22.496,0,40.798,18.302,40.798,40.798v302.835 c0,37.186-29.692,67.548-66.61,68.673L442.937,512c37.895,0,68.727-30.83,68.727-68.727V140.437 C511.663,117.941,493.361,99.639,470.865,99.639z"></path> <path style="fill:#ECE5DD;" d="M69.063,511.327c-37.895,0-68.727-30.83-68.727-68.727V38.999C0.336,17.495,17.832,0,39.336,0 h301.373c21.504,0,38.999,17.495,38.999,38.999V442.6c0,19.149,8.588,37.074,23.561,49.18l24.691,20.194L69.063,511.327z"></path> <path style="fill:#D9CBBD;" d="M346.445,38.999V442.6c0,19.149,8.588,37.074,23.561,49.18l24.617,20.134l33.335,0.059 l-24.691-20.194c-14.974-12.106-23.561-30.031-23.561-49.18V38.999C379.708,17.495,362.213,0,340.709,0h-33.262 C328.95,0,346.445,17.495,346.445,38.999z"></path> <path style="fill:#C0AB91;" d="M55.318,178.859V89.696c0-7.262,5.886-13.148,13.148-13.148h111.156 c7.262,0,13.148,5.886,13.148,13.148v89.163c0,7.262-5.886,13.148-13.148,13.148H68.466 C61.204,192.008,55.318,186.121,55.318,178.859z"></path> <g> <path style="fill:#BABABA;" d="M332.974,93.042H256c-4.555,0-8.247,3.691-8.247,8.247s3.693,8.247,8.247,8.247h76.974 c4.555,0,8.247-3.691,8.247-8.247S337.529,93.042,332.974,93.042z"></path> <path style="fill:#BABABA;" d="M332.974,159.019H256c-4.555,0-8.247,3.691-8.247,8.247c0,4.556,3.693,8.247,8.247,8.247h76.974 c4.555,0,8.247-3.691,8.247-8.247C341.221,162.711,337.529,159.019,332.974,159.019z"></path> <path style="fill:#BABABA;" d="M58.067,263.484h175.94c4.555,0,8.247-3.691,8.247-8.247c0-4.556-3.693-8.247-8.247-8.247H58.067 c-4.555,0-8.247,3.691-8.247,8.247C49.82,259.793,53.512,263.484,58.067,263.484z"></path> <path style="fill:#BABABA;" d="M332.974,246.99h-54.981c-4.555,0-8.247,3.691-8.247,8.247c0,4.556,3.693,8.247,8.247,8.247h54.981 c4.555,0,8.247-3.691,8.247-8.247C341.221,250.681,337.529,246.99,332.974,246.99z"></path> <path style="fill:#BABABA;" d="M58.067,329.462h43.985c4.555,0,8.247-3.691,8.247-8.247c0-4.556-3.693-8.247-8.247-8.247H58.067 c-4.555,0-8.247,3.691-8.247,8.247C49.82,325.77,53.512,329.462,58.067,329.462z"></path> <path style="fill:#BABABA;" d="M234.007,312.967h-87.97c-4.555,0-8.247,3.691-8.247,8.247c0,4.556,3.693,8.247,8.247,8.247h87.97 c4.555,0,8.247-3.691,8.247-8.247C242.255,316.659,238.562,312.967,234.007,312.967z"></path> <path style="fill:#BABABA;" d="M332.974,312.967h-54.981c-4.555,0-8.247,3.691-8.247,8.247c0,4.556,3.693,8.247,8.247,8.247h54.981 c4.555,0,8.247-3.691,8.247-8.247C341.221,316.659,337.529,312.967,332.974,312.967z"></path> <path style="fill:#BABABA;" d="M332.974,378.945H58.067c-4.555,0-8.247,3.691-8.247,8.247s3.693,8.247,8.247,8.247h274.907 c4.555,0,8.247-3.691,8.247-8.247S337.529,378.945,332.974,378.945z"></path> </g> </g></svg>